# xmcd CD database file
#
# Track frame offsets:
#	150
#	41072
#	80267
#	129351
#	149036
#	193950
#	261101
#	298397
#
# Disc length: 4594 seconds
#
# Revision: 0
# Processed by: cddbd v1.5.2PL0 Copyright (c) Steve Scherf et al.
# Submitted via: CDex 1.70beta2
#
DISCID=8111f008
DTITLE=Cecil Taylor - Looking Ahead, The World of Cecil Taylor, Love for Sale
DYEAR=1960
DGENRE=Jazz
TTITLE0=Excursion On a Wobbly Rail
TTITLE1=Air
TTITLE2=This Nearly was Mine
TTITLE3=Port of Call
TTITLE4=E.B.
TTITLE5=Lazy Afternoon
TTITLE6=Love for Sale
TTITLE7=Matie's Trophies (Motystrophe)
EXTD=YEAR: 1960
EXTT0=
EXTT1=
EXTT2=
EXTT3=
EXTT4=
EXTT5=
EXTT6=
EXTT7=
PLAYORDER=
